<svg width="214" height="39" viewBox="0 0 214 39" fill="none" xmlns="http://www.w3.org/2000/svg">
<g id="Logo" clip-path="url(#clip0_1_132)">
<g id="Group">
<path id="Vector" d="M60.3585 36.2063V3.1423H67.8867V29.7822H82.4276V36.2063H60.3585Z" fill="black"/>
<path id="Vector_2" d="M85.0459 4.01621C85.0459 1.74779 86.8221 0 89.2057 0C91.5893 0 93.3195 1.74779 93.3195 4.01621C93.3195 6.28462 91.5433 8.0789 89.2057 8.0789C86.8681 8.0789 85.0459 6.37759 85.0459 4.01621ZM85.7039 36.2063V10.0405H92.7167V36.2063H85.7039Z" fill="black"/>
<path id="Vector_3" d="M136.477 19.1096V36.2063H129.511V20.9503C129.511 17.8824 127.734 15.8975 125.116 15.8975C121.798 15.8975 119.834 19.2025 119.834 24.8736V36.211H112.821V20.955C112.821 17.887 111.091 15.9022 108.472 15.9022C105.155 15.9022 103.144 19.2072 103.144 24.8782V36.2156H96.177V10.0406H103.144V13.8662C104.175 11.6954 107.12 9.66403 110.764 9.66403C114.408 9.66403 117.588 11.6024 118.665 14.3868C120.91 11.1748 124.182 9.66403 127.454 9.66403C132.879 9.66403 136.477 13.3967 136.477 19.1096Z" fill="black"/>
<path id="Vector_4" d="M139.284 4.01621C139.284 1.74779 141.061 0 143.444 0C145.828 0 147.558 1.74779 147.558 4.01621C147.558 6.28462 145.782 8.0789 143.444 8.0789C141.107 8.0789 139.284 6.37759 139.284 4.01621ZM139.938 36.2063V10.0405H146.951V36.2063H139.938Z" fill="black"/>
<path id="Vector_5" d="M175.195 19.1095V36.2063H168.228V20.9503C168.228 17.8824 166.309 15.8975 163.364 15.8975C159.669 15.8975 157.428 19.249 157.428 24.8735V36.211H150.416V10.0405H157.428V13.9126C158.551 11.6907 161.639 9.65936 165.656 9.65936C171.454 9.65936 175.195 13.392 175.195 19.1049V19.1095Z" fill="black"/>
<path id="Vector_6" d="M200.862 20.5273V36.2063H194.038V33.0408C192.681 35.2116 189.782 36.5828 186.464 36.5828C181.462 36.5828 177.956 33.2314 177.956 28.9316C177.956 23.7812 181.651 21.1362 189.317 20.2902L194.038 19.7696V19.2955C194.038 16.5576 192.119 14.7633 189.174 14.7633C186.464 14.7633 184.591 16.7017 184.407 19.2025H178.002C178.329 13.155 183.565 9.61288 189.174 9.61288C196.049 9.61288 200.862 13.2479 200.862 20.5227V20.5273ZM194.034 25.3895V24.7759L189.17 25.3895C186.179 25.7196 184.587 26.8073 184.587 28.6945C184.587 30.2517 185.893 31.5765 188.236 31.5765C191.834 31.5765 193.942 28.6945 194.034 25.3895Z" fill="black"/>
<path id="Vector_7" d="M214 36.5363C208.855 37.1964 204.18 35.4951 204.18 28.6945V2.76578H211.147V27.8438C211.147 29.9682 212.27 30.4423 214 30.3958V36.5363Z" fill="black"/>
</g>
<g id="Group_2">
<path id="Vector_8" d="M32.0636 1.49211C32.1833 1.27828 32.0314 1.01332 31.7876 1.01332H7.29807C3.2671 1.01332 0 4.31368 0 8.38567V31.6276C0 35.6996 3.2671 39 7.29807 39H11.9226C12.0377 39 12.1435 38.9395 12.1987 38.8373L32.0636 1.49211Z" fill="black"/>
<path id="Vector_9" d="M41.5244 1.01332H38.7451C38.5702 1.01332 38.4276 1.15742 38.4276 1.33406V38.6792C38.4276 38.8559 38.5702 39 38.7451 39H41.5244C45.5554 39 48.8225 35.6996 48.8225 31.6276V8.38567C48.8225 4.31368 45.5554 1.01332 41.5244 1.01332Z" fill="black"/>
</g>
</g>
<defs>
<clipPath id="clip0_1_132">
<rect width="214" height="39" fill="white"/>
</clipPath>
</defs>
</svg>
